<svg width="20" height="20" viewBox="0 0 20 20" fill="none" xmlns="http://www.w3.org/2000/svg">
<path fill-rule="evenodd" clip-rule="evenodd" d="M5.1702 19.9855C5.11056 19.9951 5.05061 20 4.99056 20H4.69878L4.59945 19.9355C4.47695 19.8561 4.37573 19.7575 4.29938 19.6408C4.21114 19.5058 4.16675 19.3515 4.16675 19.1875V0.79375C4.16675 0.643181 4.21027 0.497944 4.29107 0.36312C4.37571 0.221911 4.49494 0.111971 4.64215 0.0403296L4.72502 0H4.81718C4.91825 0 5.01012 0.00357657 5.09324 0.0109317C5.24978 0.0247827 5.39068 0.081251 5.48273 0.171886L16.1924 9.39461C16.2384 9.43941 16.284 9.48747 16.3291 9.53876C16.4403 9.66498 16.4867 9.82323 16.4867 10C16.4867 10.1596 16.441 10.3082 16.3458 10.4317C16.2961 10.4961 16.2451 10.5541 16.1741 10.6221L5.50858 19.7872C5.41885 19.8908 5.3089 19.963 5.1702 19.9855ZM5.79511 2.55056V17.432L14.3965 9.99966L5.79511 2.55056Z"/>
</svg>
