<svg width="24" height="24" viewBox="0 0 24 24" fill="none" xmlns="http://www.w3.org/2000/svg">
<g clip-path="url(#clip0_1472_5997)">
<path fill-rule="evenodd" clip-rule="evenodd" d="M12 2.16211C15.204 2.16211 15.584 2.17411 16.849 2.23211C18.215 2.29411 19.482 2.56811 20.457 3.54311C21.432 4.51811 21.706 5.78511 21.768 7.15111C21.826 8.41611 21.838 8.79611 21.838 12.0001C21.838 15.2041 21.826 15.5841 21.768 16.8491C21.706 18.2151 21.432 19.4821 20.457 20.4571C19.482 21.4321 18.215 21.7061 16.849 21.7681C15.584 21.8261 15.204 21.8381 12 21.8381C8.79599 21.8381 8.41599 21.8261 7.15099 21.7681C5.78499 21.7061 4.51799 21.4321 3.54299 20.4571C2.56799 19.4821 2.29399 18.2151 2.23199 16.8491C2.17399 15.5841 2.16199 15.2041 2.16199 12.0001C2.16199 8.79611 2.17399 8.41611 2.23199 7.15111C2.29399 5.78511 2.56799 4.51811 3.54299 3.54311C4.51799 2.56811 5.78499 2.29411 7.15099 2.23211C8.41599 2.17411 8.79599 2.16211 12 2.16211ZM12 0C8.741 0 8.332 0.014 7.052 0.072C5.102 0.161 3.389 0.639 2.014 2.014C0.639 3.389 0.161 5.102 0.072 7.052C0.014 8.332 0 8.741 0 12C0 15.259 0.014 15.668 0.072 16.948C0.161 18.898 0.639 20.611 2.014 21.986C3.389 23.361 5.102 23.839 7.052 23.928C8.332 23.986 8.741 24 12 24C15.259 24 15.668 23.986 16.948 23.928C18.898 23.839 20.611 23.361 21.986 21.986C23.361 20.611 23.839 18.898 23.928 16.948C23.986 15.668 24 15.259 24 12C24 8.741 23.986 8.332 23.928 7.052C23.839 5.102 23.361 3.389 21.986 2.014C20.611 0.639 18.898 0.161 16.948 0.072C15.668 0.014 15.259 0 12 0Z" fill="#000048"/>
<path fill-rule="evenodd" clip-rule="evenodd" d="M5.83801 11.9999C5.83801 8.59689 8.59701 5.83789 12 5.83789C15.403 5.83789 18.162 8.59689 18.162 11.9999C18.162 15.4029 15.403 18.1619 12 18.1619C8.59701 18.1619 5.83801 15.4029 5.83801 11.9999ZM8 12C8 14.209 9.791 16 12 16C14.209 16 16 14.209 16 12C16 9.791 14.209 8 12 8C9.791 8 8 9.791 8 12Z" fill="#000048"/>
<path d="M19.846 5.594C19.846 6.38929 19.2013 7.034 18.406 7.034C17.6107 7.034 16.966 6.38929 16.966 5.594C16.966 4.79871 17.6107 4.154 18.406 4.154C19.2013 4.154 19.846 4.79871 19.846 5.594Z" fill="#000048"/>
</g>
<defs>
<clipPath id="clip0_1472_5997">
<rect width="24" height="24" fill="white"/>
</clipPath>
</defs>
</svg>
