<svg width="24" height="24" viewBox="0 0 24 24" fill="none" xmlns="http://www.w3.org/2000/svg">
<path fill-rule="evenodd" clip-rule="evenodd" d="M5.7369 23.7067H0.0296775V8.86797H5.7369V23.7067Z" fill="#000048"/>
<path fill-rule="evenodd" clip-rule="evenodd" d="M2.87416 6.58508H2.83991C1.11519 6.58508 0 5.2359 0 3.75316C0 2.23618 1.15058 1 2.90726 1C4.66622 1 5.74717 2.27613 5.78256 3.79311C5.78141 5.27585 4.66622 6.58508 2.87416 6.58508Z" fill="#000048"/>
<path fill-rule="evenodd" clip-rule="evenodd" d="M16.0099 13.4337C14.7486 13.4337 13.727 14.4565 13.727 15.7166V23.7067H8.01978C8.01978 23.7067 8.08713 10.0094 8.01978 8.86797H13.727V10.563C13.727 10.563 15.494 8.91591 18.222 8.91591C21.603 8.91591 24 11.3632 24 16.1116V23.7067H18.2928V15.7166C18.2928 14.4565 17.2712 13.4337 16.0099 13.4337Z" fill="#000048"/>
</svg>
