<svg width="20" height="20" viewBox="0 0 20 20" fill="none" xmlns="http://www.w3.org/2000/svg">
<g clip-path="url(#clip0_75_3043)">
<path fill-rule="evenodd" clip-rule="evenodd" d="M9.99994 8.37128L1.96214 0.333476C1.73633 0.107671 1.44623 0 1.14778 0C0.840371 0 0.577771 0.121043 0.376734 0.29336L0.354304 0.312586L0.333414 0.333476C0.10761 0.55928 -6.10352e-05 0.849385 -6.10352e-05 1.14784C-6.10352e-05 1.44629 0.10761 1.73639 0.333414 1.9622L8.37064 9.99943L0.333986 18.0192C0.108182 18.245 -6.10352e-05 18.5357 -6.10352e-05 18.8341C-6.10352e-05 19.1233 0.101 19.4046 0.312634 19.6272C0.525415 19.8635 0.818905 20 1.14778 20C1.47384 20 1.76513 19.8658 1.97745 19.6332L9.99994 11.6276L18.0222 19.633C18.2151 19.8447 18.4927 20 18.8341 20C19.1676 20 19.4539 19.861 19.6665 19.6485C19.8923 19.4227 19.9999 19.1326 19.9999 18.8341C19.9999 18.5267 19.8789 18.2641 19.7066 18.0631L19.6871 18.0404L11.6292 9.99943L19.6665 1.9622C19.8923 1.73639 19.9999 1.44629 19.9999 1.14784C19.9999 0.849385 19.8923 0.55928 19.6665 0.333476C19.4407 0.107671 19.1506 0 18.8521 0C18.5536 0 18.2635 0.107671 18.0377 0.333476L9.99994 8.37128Z" fill="#23036A"/>
</g>
<defs>
<clipPath id="clip0_75_3043">
<rect width="20" height="20" fill="white"/>
</clipPath>
</defs>
</svg>
