<svg width="125" height="40" viewBox="0 0 125 40" fill="none" xmlns="http://www.w3.org/2000/svg">
<path d="M68.5395 9.48932H69.7046V16.5465H68.5395V9.48932ZM64.2677 9.33014C63.5234 9.33014 62.7993 9.59136 62.2289 10.0689V9.48524H61.0638V16.5424H62.2289V12.5628C62.241 11.424 63.1674 10.5138 64.296 10.5301C65.4044 10.5424 66.2984 11.4444 66.3106 12.5628V16.5424H67.4756V12.5628C67.4756 10.775 66.0395 9.32606 64.2717 9.32606M58.7337 9.48524H59.8988V16.2771C59.8543 18.2934 58.2442 19.9138 56.2499 19.9587C54.652 19.9995 53.2281 18.9505 52.775 17.4077H54.029C54.4255 18.2771 55.3033 18.8199 56.2539 18.7832C57.6051 18.7383 58.6933 17.6403 58.7378 16.2771V15.7097C57.2612 17.0934 54.9514 17.0077 53.58 15.5179C52.2086 14.0281 52.2936 11.6975 53.7701 10.3138C55.1698 8.99953 57.3381 8.99953 58.7378 10.3138V9.48524H58.7337ZM58.7337 13.0159C58.7337 11.6322 57.6213 10.5097 56.2499 10.5097C54.8785 10.5097 53.7661 11.6322 53.7661 13.0159C53.7661 14.3995 54.8785 15.522 56.2499 15.522C57.6213 15.522 58.7337 14.3995 58.7337 13.0159ZM40.6876 10.5056C41.6544 10.5056 42.5282 11.0689 42.9368 11.9505H44.1828C43.6002 10.0036 41.5654 8.89748 39.6358 9.48524C37.7062 10.073 36.6099 12.1261 37.1925 14.073C37.775 16.0199 39.8098 17.1261 41.7394 16.5383C42.9125 16.1832 43.8308 15.2567 44.1828 14.073H42.9368C42.3543 15.3261 40.8777 15.8689 39.6358 15.2852C38.3939 14.6975 37.8559 13.2077 38.4344 11.9546C38.8429 11.073 39.7208 10.5097 40.6876 10.5097M52.0347 13.0159C52.0347 15.0485 50.4004 16.6975 48.3858 16.6975C46.3713 16.6975 44.737 15.0485 44.737 13.0159C44.737 10.9832 46.3713 9.33422 48.3858 9.33422C50.4004 9.33422 52.0347 10.9832 52.0347 13.0159ZM50.8696 13.0159C50.8696 11.6322 49.7572 10.5097 48.3858 10.5097C47.0145 10.5097 45.902 11.6322 45.902 13.0159C45.902 14.3995 47.0145 15.522 48.3858 15.522C49.7572 15.522 50.8696 14.3995 50.8696 13.0159ZM89.0088 9.33014C88.2645 9.33014 87.5404 9.59136 86.97 10.0689V9.48932H85.8049V16.5465H86.97V12.5669C86.97 11.4281 87.8802 10.5056 89.0088 10.5056C90.1374 10.5056 91.0517 11.424 91.0517 12.5628V16.5465H92.2167V12.5669C92.2167 10.7791 90.7806 9.33014 89.0128 9.33014M83.4708 9.48932H84.6358V16.5465H83.4708V15.7138C81.9942 17.0975 79.6844 17.0118 78.313 15.522C76.9417 14.0322 77.0266 11.7016 78.5031 10.3179C79.1787 9.68524 80.0646 9.33422 80.987 9.33422C81.9093 9.33422 82.7952 9.68524 83.4708 10.3179V9.4934V9.48932ZM83.4708 13.0159C83.4708 11.6322 82.3583 10.5097 80.987 10.5097C79.6156 10.5097 78.5031 11.6322 78.5031 13.0159C78.5031 14.3995 79.6156 15.522 80.987 15.522C82.3583 15.522 83.4708 14.3995 83.4708 13.0159ZM96.1124 10.6648V9.48932H94.3648V7.56279H93.1997V14.1914C93.1997 15.4893 94.2434 16.5424 95.5298 16.5424H96.1124V15.3669H95.5298C94.8866 15.3669 94.3648 14.8403 94.3648 14.1914V10.6608H96.1124V10.6648ZM69.1221 6.94238C68.6933 6.94238 68.3494 7.2934 68.3494 7.72197C68.3494 8.15055 68.6973 8.50157 69.1221 8.50157C69.5509 8.50157 69.8947 8.15055 69.8947 7.72197C69.8947 7.28932 69.5468 6.94238 69.1221 6.94238ZM76.7111 9.48932H70.8818V10.6648H75.1981L70.8818 15.3669V16.5424H76.7111V15.3669H72.3907L76.707 10.6648V9.48932H76.7111Z" fill="#000048"/>
<path d="M50.4452 21.155C51.8246 21.155 52.9452 21.5795 53.8028 22.4285C54.6604 23.2774 55.0892 24.4121 55.0892 25.8366V32.8244H52.4638V26.4162C52.4638 25.555 52.2453 24.8815 51.8084 24.3877C51.3715 23.8979 50.7688 23.6489 50.0083 23.6489C49.3084 23.6489 48.7097 23.8815 48.2203 24.3468C47.7308 24.8121 47.484 25.5019 47.484 26.4121V32.8203H44.891V26.4121C44.891 25.5509 44.6685 24.8774 44.2235 24.3836C43.7785 23.8938 43.1717 23.6448 42.4031 23.6448C41.7073 23.6448 41.1126 23.8774 40.6191 24.3428C40.1256 24.8081 39.8788 25.4979 39.8788 26.4081V32.8162H37.3101V21.3836H39.8788V22.9958C40.2631 22.3468 40.7688 21.8774 41.3918 21.5836C42.0147 21.2897 42.662 21.1428 43.3335 21.1428C45.0002 21.1428 46.1693 21.8121 46.8408 23.1509C47.1563 22.5346 47.6458 22.0448 48.3012 21.6815C48.9565 21.3183 49.6725 21.1387 50.4533 21.1387L50.4452 21.155Z" fill="#000048"/>
<path d="M57.8803 22.8696C59.0048 21.7267 60.3964 21.1553 62.0591 21.1553C63.7217 21.1553 65.1133 21.7267 66.2459 22.8696C67.3786 24.0124 67.945 25.4287 67.945 27.1185C67.945 28.8083 67.3786 30.2206 66.2459 31.3553C65.1133 32.49 63.7176 33.0573 62.0591 33.0573C60.4005 33.0573 59.0048 32.49 57.8803 31.3553C56.7557 30.2206 56.1934 28.8083 56.1934 27.1185C56.1934 25.4287 56.7557 24.0124 57.8803 22.8696ZM64.4336 24.6532C63.7904 23.992 63.0016 23.6614 62.055 23.6614C61.1084 23.6614 60.3236 23.992 59.6885 24.6532C59.0534 25.3145 58.7379 26.1389 58.7379 27.1185C58.7379 28.0981 59.0574 28.9104 59.6925 29.5675C60.3317 30.2247 61.1165 30.5553 62.051 30.5553C62.9854 30.5553 63.7864 30.2247 64.4296 29.5634C65.0728 28.9022 65.3924 28.0859 65.3924 27.1185C65.3924 26.1512 65.0728 25.3145 64.4296 24.6532H64.4336Z" fill="#000048"/>
<path d="M82.2128 21.155C83.5922 21.155 84.7128 21.5795 85.5704 22.4285C86.428 23.2774 86.8568 24.4121 86.8568 25.8366V32.8244H84.2314V26.4162C84.2314 25.555 84.0129 24.8815 83.576 24.3877C83.1391 23.8979 82.5364 23.6489 81.7759 23.6489C81.076 23.6489 80.4773 23.8815 79.9878 24.3468C79.4983 24.8121 79.2516 25.5019 79.2516 26.4121V32.8203H76.6585V26.4121C76.6585 25.5509 76.4361 24.8774 75.9911 24.3836C75.5461 23.8938 74.9393 23.6448 74.1707 23.6448C73.4749 23.6448 72.8802 23.8774 72.3867 24.3428C71.8932 24.8081 71.6464 25.4979 71.6464 26.4081V32.8162H69.0776V21.3836H71.6464V22.9958C72.0307 22.3468 72.5364 21.8774 73.1594 21.5836C73.7823 21.2897 74.4296 21.1428 75.1011 21.1428C76.7678 21.1428 77.9369 21.8121 78.6084 23.1509C78.9239 22.5346 79.4134 22.0448 80.0687 21.6815C80.7241 21.3183 81.4401 21.1387 82.2208 21.1387L82.2128 21.155Z" fill="#000048"/>
<path d="M99.337 26.8655C99.337 27.392 99.3127 27.7553 99.2682 27.9634H90.5748C90.7407 28.8165 91.1088 29.4859 91.6833 29.9716C92.2577 30.4573 92.9939 30.7022 93.892 30.7022C94.5878 30.7022 95.1824 30.5512 95.6841 30.2451C96.1857 29.9389 96.4931 29.543 96.6064 29.0573H99.1994C98.9891 30.2614 98.3904 31.2287 97.4114 31.9594C96.4284 32.69 95.2431 33.0573 93.8475 33.0573C92.7553 33.0573 91.7561 32.7961 90.858 32.2736C89.96 31.7512 89.252 31.0287 88.7342 30.1104C88.2164 29.1879 87.9575 28.1675 87.9575 27.0491C87.9575 25.9308 88.2164 24.9634 88.7342 24.0614C89.252 23.1594 89.9559 22.4492 90.8499 21.9308C91.7439 21.4124 92.7269 21.1553 93.7989 21.1553C94.8103 21.1553 95.7367 21.3961 96.5781 21.8736C97.4195 22.3512 98.091 23.0328 98.5886 23.9104C99.0862 24.7879 99.337 25.7757 99.337 26.8614V26.8655ZM90.6436 25.7349H96.5295C96.4163 25.0736 96.1007 24.5389 95.5829 24.1308C95.0651 23.7226 94.4219 23.5185 93.6533 23.5185C92.8847 23.5185 92.2455 23.7145 91.7156 24.1022C91.1857 24.49 90.8297 25.0328 90.6396 25.7349H90.6436Z" fill="#000048"/>
<path d="M106.468 21.1553C107.917 21.1553 109.066 21.6165 109.911 22.5389C110.756 23.4614 111.177 24.7185 111.177 26.3063V32.8287H108.584V26.6287C108.584 25.7308 108.333 25.0124 107.832 24.4696C107.33 23.9308 106.667 23.6573 105.845 23.6573C105.024 23.6573 104.312 23.9267 103.803 24.4696C103.293 25.0083 103.038 25.7308 103.038 26.6287V32.8287H100.469V21.3961H103.038V23.1879C103.402 22.5389 103.875 22.041 104.466 21.6859C105.053 21.3308 105.724 21.1553 106.468 21.1553Z" fill="#000048"/>
<path d="M117.88 23.8733H114.903V28.4774C114.903 29.1712 115.093 29.6814 115.473 30.0121C115.854 30.3427 116.376 30.51 117.043 30.51C117.367 30.51 117.646 30.4814 117.88 30.4202V32.8284C117.48 32.9182 117.015 32.9672 116.489 32.9672C115.215 32.9672 114.199 32.5835 113.443 31.8121C112.686 31.0447 112.31 29.9468 112.31 28.5223V18.3223H114.903V21.3957H117.88V23.8733Z" fill="#000048"/>
<mask id="mask0_1472_6647" style="mask-type:luminance" maskUnits="userSpaceOnUse" x="7" y="9" width="28" height="24">
<path d="M34.5468 20.318V32.8241H7.11963V9.48535H34.5468V20.318Z" fill="white"/>
</mask>
<g mask="url(#mask0_1472_6647)">
<mask id="mask1_1472_6647" style="mask-type:luminance" maskUnits="userSpaceOnUse" x="7" y="21" width="17" height="12">
<path d="M7.11963 21.1543L15.1577 32.8237L23.491 27.8033L18.8227 21.1543H7.11963Z" fill="white"/>
</mask>
<g mask="url(#mask1_1472_6647)">
<path d="M7.11963 21.1543H23.4869V32.8237H7.11963V21.1543Z" fill="url(#paint0_linear_1472_6647)"/>
</g>
<mask id="mask2_1472_6647" style="mask-type:luminance" maskUnits="userSpaceOnUse" x="15" y="21" width="20" height="12">
<path d="M15.1577 32.8237H26.6666L34.5469 21.1543L15.1577 32.8237Z" fill="white"/>
</mask>
<g mask="url(#mask2_1472_6647)">
<path d="M15.1577 21.1543H34.5469V32.8237H15.1577V21.1543Z" fill="url(#paint1_linear_1472_6647)"/>
</g>
<mask id="mask3_1472_6647" style="mask-type:luminance" maskUnits="userSpaceOnUse" x="7" y="9" width="17" height="13">
<path d="M15.1577 9.48535L7.11963 21.1547H18.8227L23.5031 14.5098L15.1577 9.48535Z" fill="white"/>
</mask>
<g mask="url(#mask3_1472_6647)">
<path d="M7.11963 9.48535H23.5031V21.1547H7.11963V9.48535Z" fill="url(#paint2_linear_1472_6647)"/>
</g>
<mask id="mask4_1472_6647" style="mask-type:luminance" maskUnits="userSpaceOnUse" x="15" y="9" width="20" height="13">
<path d="M15.1577 9.48535L34.5469 21.1547L26.6666 9.48535H15.1577Z" fill="white"/>
</mask>
<g mask="url(#mask4_1472_6647)">
<path d="M15.1577 9.48535H34.5469V21.1547H15.1577V9.48535Z" fill="url(#paint3_linear_1472_6647)"/>
</g>
</g>
<path d="M116.602 18.3057V18.4771H116.299V19.3097H116.121V18.4771H115.817V18.3057H116.602ZM117.605 18.3057H117.787V19.3138H117.605V18.6608L117.318 19.3138H117.189L116.91 18.6608V19.3138H116.728V18.3057H116.946L117.27 19.0444L117.605 18.3057Z" fill="#000048"/>
<defs>
<linearGradient id="paint0_linear_1472_6647" x1="7.42934" y1="26.6732" x2="23.8737" y2="26.6732" gradientUnits="userSpaceOnUse">
<stop stop-color="#3D54CE"/>
<stop offset="1" stop-color="#35CACF"/>
</linearGradient>
<linearGradient id="paint1_linear_1472_6647" x1="15.1327" y1="26.6732" x2="34.6098" y2="26.6732" gradientUnits="userSpaceOnUse">
<stop stop-color="#13457D"/>
<stop offset="1" stop-color="#279698"/>
</linearGradient>
<linearGradient id="paint2_linear_1472_6647" x1="7.20045" y1="15.0775" x2="23.6567" y2="15.0775" gradientUnits="userSpaceOnUse">
<stop stop-color="#090086"/>
<stop offset="1" stop-color="#2F96A9"/>
</linearGradient>
<linearGradient id="paint3_linear_1472_6647" x1="15.1327" y1="15.0775" x2="34.6098" y2="15.0775" gradientUnits="userSpaceOnUse">
<stop stop-color="#3B62CA"/>
<stop offset="1" stop-color="#93DFE3"/>
</linearGradient>
</defs>
</svg>
